PathFileType	4	(X/Y/Z)	C:/Users/beibeiliu/ov580/test_trc/User3\out6_training_dense_left.trc
DataRate	CameraRate	NumFrames	NumMarkers	Units	OrigDataRate	OrigDataStartFrame	OrigNumFrames
120	120	14	19	mm	120	1	500
Frame#	Time	ThumbCMC			ThumbMCP			ThumbIP			ThumbTip			IndexMCP			IndexPIP			IndexTip			MiddleMCP			MiddlePIP			MiddleTip			RingMCP			RingPIP			RingTip			PinkyMCP			PinkyPIP			PinkyTip			BackHand1			BackHand2			BackHand3	
		X0	Y0	Z0	X1	Y1	Z1	X2	Y2	Z2	X3	Y3	Z3	X4	Y4	Z4	X5	Y5	Z5	X6	Y6	Z6	X7	Y7	Z7	X8	Y8	Z8	X9	Y9	Z9	X10	Y10	Z10	X11	Y11	Z11	X12	Y12	Z12	X13	Y13	Z13	X14	Y14	Z14	X15	Y15	Z15	X16	Y16	Z16	X17	Y17	Z17	X18	Y18	Z18	
0	0	-136.595	6.21559	54.9676	-117.948	-1.57784	33.7147	-97.8514	-6.53716	10.8424	-89.1053	-15.4375	-13.6597	-154.773	22.5243	-20.8899	-146.98	23.1172	-48.5897	-141.789	13.3876	-79.2034	-176.912	23.9831	-28.3931	-176.704	23.1307	-58.8488	-175.885	9.25292	-89.7319	-194.716	16.6037	-23.4428	-197.764	15.4577	-47.5504	-199.729	1.84957	-73.7741	-216.749	4.32286	-8.21472	-220.343	1.34276	-28.5982	-218.476	-8.45301	-53.4981	-197.55	23.8004	26.2195	-200.177	24.2166	60.8454	-166.795	28.1109	42.2093	
1	0.00833333	-138.843	5.83082	51.6085	-117.66	-0.323366	31.7033	-103.683	-7.11809	8.73431	-90.5527	-16.0097	-13.7318	-156.42	23.3624	-23.3331	-149.654	23.5674	-53.8049	-145.011	13.0554	-80.8201	-177.51	25.1873	-31.6782	-177.011	24.3829	-57.2801	-177.454	9.55574	-90.5432	-200.404	17.0225	-22.2813	-197.897	15.4634	-48.6095	-200.089	0.486851	-79.1183	-215.505	4.08881	-5.06366	-221.906	1.08751	-34.3896	-223.16	-7.49151	-53.9042	-200.782	22.6726	29.2406	-200.117	25.7597	57.4884	-166.814	27.5827	39.5887	
2	0.0166667	-139.624	5.32885	53.1685	-120.223	-0.839001	33.8006	-100.383	-7.38869	5.87162	-93.0382	-15.7049	-9.76823	-151.872	24.2014	-26.918	-150.516	23.5401	-51.7106	-141.969	15.646	-77.1055	-180.61	25.3572	-28.4567	-178.066	24.2615	-58.5112	-175.209	11.1498	-89.2932	-195.908	17.5114	-20.3145	-198.745	14.4777	-52.8742	-201.521	0.861919	-77.9619	-217.717	5.85788	-6.43581	-222.852	1.45902	-32.2937	-221.706	-9.03932	-53.0722	-202.069	23.8117	28.6817	-199.809	24.5271	57.1386	-168.875	27.3362	42.2525	
3	0.025	-136.216	6.69874	48.9569	-120.582	-0.622179	30.7573	-102.343	-7.09058	7.74636	-91.948	-15.395	-8.26171	-154.802	24.0256	-26.1782	-146.387	24.3897	-54.5644	-147.728	16.2799	-76.0623	-178.375	25.2933	-26.9312	-178.647	24.0452	-60.3425	-178.281	10.5996	-89.5386	-195.619	18.3221	-22.7197	-199.672	15.035	-51.3532	-199.671	4.23965	-73.6821	-213.226	5.2871	-4.86072	-218.734	4.05828	-31.6802	-222.508	-6.50407	-53.8669	-200.212	23.347	25.9914	-203.574	24.893	56.3661	-167.392	28.2758	39.4933	
4	0.0333333	-140.453	5.69974	52.3857	-118.801	-0.146576	29.2212	-99.5545	-6.7417	9.49239	-89.2124	-15.1987	-10.1959	-151.987	24.6826	-22.4733	-148.146	25.8541	-49.5939	-143.041	18.28	-75.8449	-176.169	27.8671	-32.1463	-175.84	23.5575	-62.3186	-175.873	12.267	-88.3665	-200.134	17.1684	-21.96	-198.427	15.3766	-52.7136	-201.349	0.87837	-76.9874	-218.46	5.82663	-7.2551	-217.523	4.23122	-29.9787	-222.363	-6.72247	-53.8681	-200.761	25.2916	26.8931	-197.578	26.5841	55.0691	-167.709	27.5492	39.51	
5	0.0416667	-139.454	6.26859	48.353	-119.813	0.112343	29.9703	-101.598	-6.28581	5.52042	-88.8374	-15.2333	-11.3963	-151.174	24.5649	-21.1822	-150.879	25.0334	-53.5313	-143.931	18.3301	-75.7066	-180.096	26.4484	-31.1687	-176.704	25.0032	-59.6355	-179.104	11.0824	-88.8722	-200.619	17.4362	-21.9474	-201.566	14.7015	-52.1754	-203.229	2.2663	-74.2649	-216.031	7.15091	-6.53006	-217.994	4.95106	-28.1574	-222.218	-8.07911	-52.1116	-197.146	25.2283	30.3861	-199.654	25.576	57.209	-164.218	27.8927	40.8976	
6	0.05	-137.076	7.26903	48.9921	-117.158	0.497851	29.5866	-103.153	-7.81499	9.77611	-91.7413	-14.9165	-10.362	-155.186	25.4131	-26.2533	-147.445	25.7157	-49.3248	-146.137	18.3816	-75.9496	-181.109	26.6577	-31.6214	-176.606	25.6115	-57.3819	-177.243	11.4898	-91.07	-195.993	17.5845	-19.7802	-200.493	15.5366	-49.3401	-199.655	1.94955	-78.1528	-218.323	6.47935	-6.96344	-220.068	2.89452	-33.6064	-221.824	-8.0171	-53.9689	-196.045	23.2346	30.5132	-201.244	25.5381	58.8515	-167.735	29.4241	42.2898	
7	0.0583333	-137.716	7.27292	53.9422	-118.299	-0.0780533	32.8441	-98.8421	-5.64037	7.06999	-88.2221	-14.4246	-9.9575	-153.897	25.83	-24.6683	-146.408	25.0181	-53.8379	-146.698	18.8054	-76.136	-179.019	26.6443	-31.2605	-177.396	24.9983	-58.0724	-173.481	9.7174	-93.0584	-195.721	18.191	-20.9593	-202.685	14.9015	-49.6365	-202.171	2.53654	-74.4356	-217.848	7.9394	-9.13023	-219.186	4.12106	-30.0864	-220.389	-9.42755	-56.1212	-201.436	23.2566	30.6061	-201.169	25.5385	56.919	-164.844	30.5014	41.4115	
8	0.0666667	-137.988	6.52964	51.2756	-119.138	-0.0944844	30.1149	-103.501	-6.29991	8.30072	-90.9598	-14.1121	-13.7422	-153.728	25.5402	-22.0503	-147.776	25.9514	-54.2527	-141.384	17.4117	-79.7293	-178.102	26.8554	-27.5918	-179.676	24.6099	-61.2417	-175.609	11.1265	-90.3028	-197.663	18.9346	-22.326	-201.886	16.034	-49.0721	-198.567	2.45755	-76.6426	-217.962	6.78121	-4.57934	-219.196	4.91443	-28.8009	-221.859	-7.28102	-54.3886	-198.673	23.3499	29.0186	-201.653	24.855	60.077	-166.49	28.0435	42.6003	
9	0.075	-140.197	6.3814	52.9737	-115.342	0.172304	31.7918	-98.7279	-5.69954	11.4757	-92.7695	-15.4219	-9.37082	-152.429	25.5314	-23.0933	-150.284	26.6852	-49.3792	-145.241	19.5956	-77.2009	-176.46	27.6744	-29.7332	-175.143	26.0999	-59.0569	-174.464	12.1893	-88.7831	-194.216	19.933	-23.174	-202.457	17.1334	-47.4628	-200	3.06498	-74.723	-213.204	6.83646	-3.79434	-219.918	4.11391	-31.2568	-219.946	-6.53668	-52.9892	-201.336	23.9881	29.8512	-201.332	26.2794	56.1539	-165.417	28.7533	43.4967	
10	0.0833333	-137.628	7.97277	51.0644	-117.436	0.770594	32.0891	-99.7449	-5.87276	9.41352	-88.7661	-14.1837	-11.2923	-154.564	25.2827	-24.3754	-147.102	26.3517	-50.2883	-145.243	18.3475	-79.0441	-177.603	27.9299	-31.32	-175.698	25.7202	-57.8158	-177.823	12.402	-88.4395	-200.314	18.1689	-21.2493	-201.601	17.075	-47.742	-199.164	3.48441	-76.3956	-213.128	6.75764	-4.18257	-219.224	5.12768	-30.7919	-219.809	-6.449	-52.3726	-200.945	24.0638	30.2035	-200.384	25.3633	55.165	-167.418	29.8406	42.2772	
11	0.0916667	-140.968	6.46287	53.2448	-114.996	1.04207	34.0722	-97.8721	-5.06442	11.2788	-91.5086	-14.0826	-9.25306	-152.718	26.026	-24.7739	-146.529	26.3416	-52.7609	-144.738	19.9801	-75.5832	-177.466	27.5166	-28.4653	-177.962	26.2871	-59.9439	-176.014	12.0606	-92.1943	-198.703	18.1311	-19.426	-198.22	17.5076	-47.3407	-201.4	5.09904	-73.4445	-212.029	8.97443	-9.02137	-217.266	5.62918	-28.6224	-221.631	-7.36133	-54.3328	-200.769	25.9528	28.1399	-202.705	26.5471	57.0718	-164.269	28.4432	40.3499	
12	0.1	-140.505	7.8124	48.7762	-120.076	-0.704787	31.3262	-97.2764	-6.53752	11.019	-87.1776	-14.0384	-8.88049	-151.592	26.4542	-25.776	-144.327	26.8971	-51.761	-142.957	20.5789	-74.71	-175.403	27.7917	-30.5219	-177.128	25.5028	-61.3422	-176.851	13.9596	-88.9535	-199.912	18.9485	-20.9201	-196.756	17.2872	-50.6033	-199.818	4.3092	-74.9389	-215.457	6.93302	-4.91585	-218.786	5.28778	-28.1135	-219.337	-6.40435	-55.4223	-195.964	24.1267	26.5349	-199.4	25.8643	59.1621	-165.988	27.8464	42.5744	
13	0.108333	-138.683	6.90072	52.6011	-115.352	0.800451	30.9402	-97.1524	-5.01781	8.65301	-87.5167	-14.4731	-10.9152	-155.8	25.5033	-22.8869	-147.608	27.8024	-49.592	-143.256	19.2436	-78.785	-177.421	28.7869	-32.1493	-175.465	25.8255	-61.1192	-174.335	14.0011	-88.7027	-197.159	19.513	-23.1571	-198.81	17.3304	-47.1217	-198.856	5.09433	-73.591	-212.296	9.14288	-8.95894	-218.79	3.60755	-33.4687	-217.733	-6.22403	-54.7138	-197.024	23.8547	26.5161	-199.47	27.7674	56.4929	-166.108	30.6334	44.2873	
